<svg xmlns="http://www.w3.org/2000/svg" version="1.1" xmlns:xlink="http://www.w3.org/1999/xlink" xmlns:svgjs="http://svgjs.dev/svgjs" width="1500" height="295" viewBox="0 0 1500 295"><g transform="matrix(1,0,0,1,-0.9090909090909918,-1.1345352214120794)"><svg viewBox="0 0 396 78" data-background-color="#ffffff" preserveAspectRatio="xMidYMid meet" height="295" width="1500" xmlns="http://www.w3.org/2000/svg" xmlns:xlink="http://www.w3.org/1999/xlink"><g id="tight-bounds" transform="matrix(1,0,0,1,0.2400000000000091,0.29997880430556734)"><svg viewBox="0 0 395.52 77.30400491322689" height="77.30400491322689" width="395.52"><g><svg viewBox="0 0 574.3707320737568 112.26020907727404" height="77.30400491322689" width="395.52"><g transform="matrix(1,0,0,1,178.85073207375686,12.922523374553961)"><svg viewBox="0 0 395.52 86.41516232816612" height="86.41516232816612" width="395.52"><g id="textblocktransform"><svg viewBox="0 0 395.52 86.41516232816612" height="86.41516232816612" width="395.52" id="textblock"><g><svg viewBox="0 0 395.52 86.41516232816612" height="86.41516232816612" width="395.52"><g transform="matrix(1,0,0,1,0,0)"><svg width="395.52" viewBox="5.7 -37.1 170.94 37.35" height="86.41516232816612" data-palette-color="#000000"><path d="M31.3-35L34.95-35 34.95 0 31.9 0 9.4-28.4 9.4 0 5.7 0 5.7-35 8.75-35 31.3-6.6 31.3-35ZM68.55-13.15L68.5-12.05 46.5-12.05Q46.8-7.95 49.65-5.43 52.5-2.9 56.85-2.9L56.85-2.9Q59.3-2.9 61.35-3.78 63.4-4.65 64.9-6.35L64.9-6.35 66.9-4.05Q65.15-1.95 62.52-0.85 59.9 0.25 56.75 0.25L56.75 0.25Q52.7 0.25 49.57-1.48 46.45-3.2 44.7-6.25 42.95-9.3 42.95-13.15L42.95-13.15Q42.95-17 44.62-20.05 46.3-23.1 49.22-24.8 52.15-26.5 55.8-26.5L55.8-26.5Q59.45-26.5 62.35-24.8 65.25-23.1 66.9-20.08 68.55-17.05 68.55-13.15L68.55-13.15ZM55.8-23.45Q52-23.45 49.42-21.03 46.85-18.6 46.5-14.7L46.5-14.7 65.15-14.7Q64.8-18.6 62.22-21.03 59.65-23.45 55.8-23.45L55.8-23.45ZM89.35-26.5Q93.05-26.5 96.05-24.83 99.05-23.15 100.75-20.1 102.45-17.05 102.45-13.15L102.45-13.15Q102.45-9.25 100.75-6.2 99.05-3.15 96.05-1.45 93.05 0.25 89.35 0.25L89.35 0.25Q86.05 0.25 83.42-1.15 80.8-2.55 79.2-5.2L79.2-5.2 79.2 0 75.8 0 75.8-37.1 79.35-37.1 79.35-21.3Q81-23.85 83.57-25.18 86.15-26.5 89.35-26.5L89.35-26.5ZM89.1-2.9Q91.85-2.9 94.1-4.17 96.35-5.45 97.62-7.8 98.9-10.15 98.9-13.15L98.9-13.15Q98.9-16.15 97.62-18.5 96.35-20.85 94.1-22.13 91.85-23.4 89.1-23.4L89.1-23.4Q86.3-23.4 84.07-22.13 81.85-20.85 80.57-18.5 79.3-16.15 79.3-13.15L79.3-13.15Q79.3-10.15 80.57-7.8 81.85-5.45 84.07-4.17 86.3-2.9 89.1-2.9L89.1-2.9ZM129.84-26.3L133.39-26.3 133.39 0 129.99 0 129.99-4.8Q128.59-2.4 126.14-1.07 123.69 0.25 120.54 0.25L120.54 0.25Q115.39 0.25 112.42-2.63 109.44-5.5 109.44-11.05L109.44-11.05 109.44-26.3 112.99-26.3 112.99-11.4Q112.99-7.25 115.04-5.1 117.09-2.95 120.89-2.95L120.89-2.95Q125.04-2.95 127.44-5.48 129.84-8 129.84-12.5L129.84-12.5 129.84-26.3ZM143.34 0L143.34-37.1 146.89-37.1 146.89 0 143.34 0ZM165.99-26.5Q171.14-26.5 173.89-23.93 176.64-21.35 176.64-16.3L176.64-16.3 176.64 0 173.24 0 173.24-4.1Q172.04-2.05 169.71-0.9 167.39 0.25 164.19 0.25L164.19 0.25Q159.79 0.25 157.19-1.85 154.59-3.95 154.59-7.4L154.59-7.4Q154.59-10.75 157.01-12.8 159.44-14.85 164.74-14.85L164.74-14.85 173.09-14.85 173.09-16.45Q173.09-19.85 171.19-21.63 169.29-23.4 165.64-23.4L165.64-23.4Q163.14-23.4 160.84-22.58 158.54-21.75 156.89-20.3L156.89-20.3 155.29-22.95Q157.29-24.65 160.09-25.58 162.89-26.5 165.99-26.5L165.99-26.5ZM164.74-2.55Q167.74-2.55 169.89-3.93 172.04-5.3 173.09-7.9L173.09-7.9 173.09-12.2 164.84-12.2Q158.09-12.2 158.09-7.5L158.09-7.5Q158.09-5.2 159.84-3.88 161.59-2.55 164.74-2.55L164.74-2.55Z" opacity="1" transform="matrix(1,0,0,1,0,0)" fill="#000000" class="wordmark-text-0" data-fill-palette-color="primary" id="text-0"></path></svg></g></svg></g></svg></g></svg></g><g><svg viewBox="0 0 158.45018621197272 112.26020907727404" height="112.26020907727404" width="158.45018621197272"><g><svg xmlns="http://www.w3.org/2000/svg" data-name="Layer 1" viewBox="4.3809322083131175 17.69304471487323 91.18982755002534 64.60698691001531" x="0" y="0" height="112.26020907727404" width="158.45018621197272" class="icon-icon-0" data-fill-palette-color="accent" id="icon-0"><g data-name="Group" fill="#000000" data-fill-palette-color="accent"><path data-name="Compound Path" d="M50 82.3A32.2 32.2 0 0 0 71.4 74.2L76.6 75.4A48 48 0 0 0 85.8 76.5C90 76.5 93.6 75.6 95 72.8 98 66.9 88.5 58 82.2 53 82.3 52 82.3 51 82.3 50A32.3 32.3 0 0 0 28.6 25.8C20.8 23.7 8 21.3 5.1 27.2S8.4 39.3 17.8 46.9C17.7 47.9 17.7 48.9 17.7 50A32.4 32.4 0 0 0 50 82.3M50 80.3A30.4 30.4 0 0 1 19.7 50V48.4A155.5 155.5 0 0 0 43.4 63.1 154.3 154.3 0 0 0 69.1 73.5 30.2 30.2 0 0 1 50 80.3M93.2 71.9C91.8 74.6 85.8 75.2 77 73.5L73.1 72.6A32.3 32.3 0 0 0 81.9 55.4C90.5 62.4 94.8 68.7 93.2 71.9M80.3 50A30.2 30.2 0 0 1 70.9 72 149.4 149.4 0 0 1 44.3 61.3 149.5 149.5 0 0 1 19.9 46.2 30.3 30.3 0 0 1 80.3 50M6.8 28.1C8.4 24.9 16 24.7 26.8 27.4A32.3 32.3 0 0 0 18 44.7C9.4 37.5 5.2 31.3 6.8 28.1" fill="#000000" data-fill-palette-color="accent"></path></g></svg></g></svg></g></svg></g><defs></defs></svg><rect width="395.52" height="77.30400491322689" fill="none" stroke="none" visibility="hidden"></rect></g></svg></g></svg>